<svg id="Capa_1" enable-background="new 0 0 512 512" height="512" viewBox="0 0 512 512" width="512" xmlns="http://www.w3.org/2000/svg"><g><g><g><path d="m481.247 413.263h-450.494c-12.842 0-23.253-10.41-23.253-23.253v-268.02c0-12.842 10.411-23.253 23.253-23.253h450.495c12.842 0 23.253 10.41 23.253 23.253v268.02c-.001 12.843-10.412 23.253-23.254 23.253z" fill="#ddc9f1"/></g></g><g><g><path d="m177.903 98.737h34.675v314.526h-34.675z" fill="#cdafeb"/></g></g><g><g><path d="m481.247 98.737h-268.541v314.526h268.541c12.842 0 23.253-10.411 23.253-23.253v-268.02c0-12.843-10.411-23.253-23.253-23.253z" fill="#cdafeb"/></g></g><g><g><path d="m481.247 98.737h-30c12.842 0 23.253 10.411 23.253 23.253v268.02c0 12.842-10.411 23.253-23.253 23.253h30c12.842 0 23.253-10.411 23.253-23.253v-268.02c0-12.843-10.411-23.253-23.253-23.253z" fill="#bd96e4"/></g></g><g><g><path d="m126.998 174.335h-57.447c-4.123 0-7.466-3.343-7.466-7.466v-27.497c0-4.123 3.343-7.466 7.466-7.466h57.447c4.123 0 7.466 3.343 7.466 7.466v27.497c.001 4.123-3.342 7.466-7.466 7.466z" fill="#62a4fb"/></g></g><g><g><path d="m446.275 376.478h-29.95c-11.716 0-21.215-9.498-21.215-21.215 0-11.717 9.498-21.215 21.215-21.215h29.95c11.717 0 21.215 9.498 21.215 21.215 0 11.716-9.498 21.215-21.215 21.215z" fill="#dbb72b"/></g></g><g><g><path d="m161.774 340.878h-91.5c-4.523 0-8.189-3.667-8.189-8.189v-117.19c0-4.523 3.667-8.189 8.189-8.189h91.5c4.523 0 8.189 3.666 8.189 8.189v117.189c.001 4.524-3.666 8.19-8.189 8.19z" fill="#f7f7f7"/></g></g><g><g><path d="m161.774 207.31h-30c4.523 0 8.189 3.666 8.189 8.189v117.189c0 4.523-3.666 8.189-8.189 8.189h30c4.523 0 8.189-3.667 8.189-8.189v-117.189c.001-4.522-3.666-8.189-8.189-8.189z" fill="#e8e8e8"/></g></g><g><g><path d="m344.48 368.359h-74.384c-7.233 0-13.096-5.863-13.096-13.096 0-7.233 5.863-13.096 13.096-13.096h74.384c7.233 0 13.096 5.863 13.096 13.096 0 7.233-5.863 13.096-13.096 13.096z" fill="#9d66d6"/></g></g><g><circle cx="253" cy="157.406" r="7.5"/><circle cx="253" cy="203.36" r="7.5"/><circle cx="253" cy="249.315" r="7.5"/><circle cx="253" cy="295.27" r="7.5"/><path d="m481.247 91.237h-352.094c-4.143 0-7.5 3.358-7.5 7.5s3.358 7.5 7.5 7.5h76.053v299.526h-174.453c-8.686 0-15.753-7.067-15.753-15.753v-268.02c0-8.686 7.066-15.753 15.753-15.753h68.4c4.143 0 7.5-3.358 7.5-7.5s-3.357-7.5-7.5-7.5h-68.4c-16.957 0-30.753 13.796-30.753 30.753v268.02c0 16.957 13.796 30.753 30.753 30.753h270.551c4.143 0 7.5-3.358 7.5-7.5s-3.357-7.5-7.5-7.5h-81.098v-299.526h261.041c8.686 0 15.753 7.067 15.753 15.753v268.02c0 8.686-7.066 15.753-15.753 15.753h-149.943c-4.143 0-7.5 3.358-7.5 7.5s3.357 7.5 7.5 7.5h149.943c16.957 0 30.753-13.796 30.753-30.753v-268.02c0-16.957-13.796-30.753-30.753-30.753z"/><path d="m126.998 124.406h-57.446c-8.253 0-14.967 6.714-14.967 14.966v27.497c0 8.253 6.714 14.966 14.967 14.966h57.446c8.253 0 14.967-6.714 14.967-14.966v-27.497c0-8.252-6.714-14.966-14.967-14.966zm-57.413 42.463-.033-27.463 57.413-.034.039 27.463z"/><path d="m416.325 383.977h29.95c15.833 0 28.715-12.881 28.715-28.715 0-15.833-12.882-28.715-28.715-28.715h-29.95c-15.833 0-28.715 12.881-28.715 28.715s12.882 28.715 28.715 28.715zm0-42.429h29.95c7.563 0 13.715 6.152 13.715 13.715 0 7.562-6.152 13.715-13.715 13.715h-29.95c-7.563 0-13.715-6.152-13.715-13.715 0-7.562 6.153-13.715 13.715-13.715z"/><path d="m177.464 215.499c0-8.651-7.038-15.689-15.689-15.689h-91.5c-4.36 0-8.307 1.79-11.153 4.671-.216.21-.415.432-.601.661-2.441 2.766-3.935 6.386-3.935 10.357v117.189c0 8.651 7.038 15.689 15.689 15.689h91.5c3.835 0 7.349-1.388 10.077-3.681 0 0 .001-.001.002-.001.237-.189.455-.393.663-.603 3.038-2.863 4.947-6.91 4.947-11.404zm-15 105.39-36.694-46.023 36.694-46.024zm-46.287-58.054-38.29-48.025h76.58zm-46.592-34.376 37.001 46.407-37.001 46.408zm46.592 58.438 37.06 46.482h-74.12z"/><path d="m280.155 164.906h51.148c4.143 0 7.5-3.358 7.5-7.5s-3.357-7.5-7.5-7.5h-51.148c-4.143 0-7.5 3.358-7.5 7.5s3.358 7.5 7.5 7.5z"/><path d="m280.155 301.619h25.574c4.143 0 7.5-3.358 7.5-7.5s-3.357-7.5-7.5-7.5h-25.574c-4.143 0-7.5 3.358-7.5 7.5s3.358 7.5 7.5 7.5z"/><path d="m336.082 286.619c-4.142 0-7.5 3.358-7.5 7.5s3.358 7.5 7.5 7.5h25.573c4.143 0 7.5-3.358 7.5-7.5s-3.357-7.5-7.5-7.5z"/><path d="m425.082 294.119c0-4.142-3.357-7.5-7.5-7.5h-25.574c-4.143 0-7.5 3.358-7.5 7.5s3.357 7.5 7.5 7.5h25.574c4.143 0 7.5-3.358 7.5-7.5z"/><path d="m280.155 210.861h84.749c4.143 0 7.5-3.358 7.5-7.5s-3.357-7.5-7.5-7.5h-84.749c-4.143 0-7.5 3.358-7.5 7.5s3.358 7.5 7.5 7.5z"/><path d="m280.155 256.24h121.882c4.143 0 7.5-3.358 7.5-7.5s-3.357-7.5-7.5-7.5h-121.882c-4.143 0-7.5 3.358-7.5 7.5s3.358 7.5 7.5 7.5z"/><path d="m457.728 195.861h-59.116c-4.142 0-7.5 3.358-7.5 7.5s3.358 7.5 7.5 7.5h59.116c4.143 0 7.5-3.358 7.5-7.5 0-4.143-3.358-7.5-7.5-7.5z"/><path d="m71.085 368.977c-4.143 0-7.5 3.358-7.5 7.5s3.357 7.5 7.5 7.5h12.787c4.143 0 7.5-3.358 7.5-7.5s-3.357-7.5-7.5-7.5z"/><path d="m112.237 368.977c-4.143 0-7.5 3.358-7.5 7.5s3.357 7.5 7.5 7.5h12.787c4.143 0 7.5-3.358 7.5-7.5s-3.357-7.5-7.5-7.5z"/><path d="m166.177 368.977h-12.787c-4.143 0-7.5 3.358-7.5 7.5s3.357 7.5 7.5 7.5h12.787c4.143 0 7.5-3.358 7.5-7.5s-3.358-7.5-7.5-7.5z"/><path d="m270.096 375.859h74.385c11.356 0 20.596-9.24 20.596-20.596 0-11.357-9.239-20.596-20.596-20.596h-74.385c-11.356 0-20.596 9.24-20.596 20.596 0 11.357 9.239 20.596 20.596 20.596zm0-26.192h74.385c3.086 0 5.596 2.51 5.596 5.596s-2.51 5.596-5.596 5.596h-74.385c-3.086 0-5.596-2.51-5.596-5.596s2.51-5.596 5.596-5.596z"/></g></g></svg>