<svg id="Capa_1" enable-background="new 0 0 512 512" height="512" viewBox="0 0 512 512" width="512" xmlns="http://www.w3.org/2000/svg"><g><g><path d="m226 10h60v492h-60z" fill="#ff9256"/><path d="m436 100v60c-13.529 0-344.933 0-360 0v-60z" fill="#ffda8f"/></g><g><path d="m286 0h-60c-5.523 0-10 4.478-10 10v20h-170c-5.523 0-10 4.478-10 10s4.477 10 10 10h50v40h-20c-5.523 0-10 4.478-10 10v60c0 5.522 4.477 10 10 10h55.857l84.143 84.143v237.857h-80c-5.523 0-10 4.478-10 10s4.477 10 10 10h240c5.523 0 10-4.478 10-10s-4.477-10-10-10h-80v-81c0-5.522-4.477-10-10-10s-10 4.478-10 10v81h-40c0-38.688 0-305.755 0-322h40v150.999c0 5.522 4.477 10 10 10s10-4.478 10-10v-66.856l84.143-84.143h55.857c5.523 0 10-4.478 10-10v-60c0-5.522-4.477-10-10-10h-20v-40h50c5.523 0 10-4.478 10-10s-4.477-10-10-10h-170v-20c0-5.522-4.477-10-10-10zm-50 20h40v70h-40zm-60 30h40v40h-40zm-60 0h40v40h-40zm100 175.857-55.857-55.857h55.857zm80 0v-55.857h55.857zm130-115.857v40h-340v-40zm-70-60h40v40h-40zm-20 0v40h-40v-40z"/><circle cx="286" cy="366" r="10"/></g></g></svg>