<?xml version="1.0"?>
<svg xmlns="http://www.w3.org/2000/svg" height="512px" viewBox="0 -67 512.00103 512" width="512px" class=""><g><path d="m127.078125 206.367188 72.507813-57.539063c7.386718-5.863281 16.539062-9.054687 25.96875-9.054687h107.957031c8.640625 0 17.070312 2.683593 24.125 7.671874l83.296875 58.921876zm0 0" fill="#d5f3f7" data-original="#D5F3F7" class=""/><path d="m357.640625 147.445312c-7.058594-4.988281-15.488281-7.671874-24.128906-7.671874h-57.910157c8.644532 0 17.074219 2.683593 24.128907 7.671874l83.296875 58.921876h57.910156zm0 0" fill="#a7e8f1" data-original="#A7E8F1"/><g fill="#00915d"><path d="m269.613281 142.859375h15.421875v56.054687h-15.421875zm0 0" data-original="#00915D" class="active-path" style="fill:#FFB229" data-old_color="#00915D"/><path d="m465.1875 214.078125h-360.230469l89.835938-71.289063c8.714843-6.917968 19.636719-10.722656 30.761719-10.722656h107.957031c10.292969 0 20.175781 3.140625 28.578125 9.085938zm-315.988281-15.421875h267.484375l-63.496094-44.914062c-5.785156-4.09375-12.589844-6.257813-19.675781-6.257813h-107.957031c-7.65625 0-15.175782 2.625-21.175782 7.382813zm0 0" data-original="#00915D" class="active-path" style="fill:#FFB229" data-old_color="#00915D"/><path d="m500.140625 308.105469h-488.28125c-6.550781 0-11.859375-5.308594-11.859375-11.859375v-53.40625c0-12.503906 8.417969-23.4375 20.503906-26.636719l76.851563-20.585937c9.660156-2.585938 19.621093-3.898438 29.625-3.898438h368.5c9.125 0 16.519531 7.394531 16.519531 16.519531v88.007813c0 6.550781-5.308594 11.859375-11.859375 11.859375zm0 0" data-original="#00915D" class="active-path" style="fill:#FFB229" data-old_color="#00915D"/></g><path d="m512 249.910156h-35.230469c-8.367187 0-15.148437-6.78125-15.148437-15.144531 0-8.367187 6.78125-15.148437 15.148437-15.148437h35.230469zm0 0" fill="#ff6930" data-original="#FF6930" class=""/><path d="m46.605469 245.324219c2.566406 5.4375-3.46875 13.675781-13.476563 18.394531-10.007812 4.722656-16.84375 2.5625-19.410156-2.878906-2.566406-5.4375.109375-12.089844 10.117188-16.8125 10.011718-4.722656 20.203124-4.144532 22.769531 1.296875zm0 0" fill="#e7e7e7" data-original="#E7E7E7"/><path d="m259.597656 236.203125h-15.421875c-4.257812 0-7.710937-3.453125-7.710937-7.710937 0-4.257813 3.453125-7.710938 7.710937-7.710938h15.421875c4.257813 0 7.710938 3.453125 7.710938 7.710938 0 4.257812-3.453125 7.710937-7.710938 7.710937zm0 0" fill="#007c4f" data-original="#007C4F" class="" style="fill:#FFEEB6" data-old_color="#007c4f"/><path d="m495.480469 191.71875h-16.035157v79.375c0 6.546875-5.3125 11.859375-11.859374 11.859375h-467.585938v13.292969c0 6.550781 5.308594 11.859375 11.859375 11.859375h488.285156c6.546875 0 11.855469-5.308594 11.855469-11.859375v-88.007813c0-9.125-7.394531-16.519531-16.519531-16.519531zm0 0" fill="#007b4e" data-original="#007B4E" class="" style="fill:#FFB229" data-old_color="#007b4e"/><path d="m479.445312 219.617188h32.554688v30.292968h-32.554688zm0 0" fill="#ff5426" data-original="#FF5426" class=""/><path d="m115.058594 243.421875c30.945312 0 56.03125 25.085937 56.03125 56.03125v8.652344h-112.0625v-8.652344c0-30.945313 25.085937-56.03125 56.03125-56.03125zm0 0" fill="#5a5a5a" data-original="#5A5A5A" class=""/><path d="m115.058594 243.421875c-5.160156 0-10.148438.710937-14.890625 2.015625 26.65625 4.3125 47.019531 27.421875 47.019531 55.300781v7.367188h23.902344v-8.652344c0-30.945313-25.085938-56.03125-56.03125-56.03125zm0 0" fill="#444" data-original="#444" class=""/><path d="m404.421875 243.421875c30.945313 0 56.03125 25.085937 56.03125 56.03125v8.652344h-112.0625v-8.652344c0-30.945313 25.085937-56.03125 56.03125-56.03125zm0 0" fill="#5a5a5a" data-original="#5A5A5A" class=""/><path d="m404.421875 243.421875c-5.15625 0-10.148437.710937-14.890625 2.015625 26.660156 4.3125 47.019531 27.421875 47.019531 55.300781v7.367188h23.902344v-8.652344c0-30.945313-25.085937-56.03125-56.03125-56.03125zm0 0" fill="#444" data-original="#444" class=""/><path d="m152.75 305.464844c0 20.816406-16.875 37.691406-37.691406 37.691406s-37.691406-16.875-37.691406-37.691406 16.875-37.691406 37.691406-37.691406 37.691406 16.875 37.691406 37.691406zm0 0" fill="#9c9c9c" data-original="#9C9C9C" class=""/><path d="m127.8125 269.992188c4.335938 6.136718 6.890625 13.625 6.890625 21.710937 0 20.816406-16.875 37.691406-37.691406 37.691406-4.476563 0-8.769531-.785156-12.753907-2.21875 6.824219 9.664063 18.070313 15.980469 30.800782 15.980469 20.816406 0 37.691406-16.875 37.691406-37.691406 0-16.339844-10.398438-30.246094-24.9375-35.472656zm0 0" fill="#838383" data-original="#838383" class=""/><path d="m131.644531 305.464844c0 9.160156-7.425781 16.582031-16.585937 16.582031s-16.585938-7.421875-16.585938-16.582031 7.425782-16.585938 16.585938-16.585938 16.585937 7.425782 16.585937 16.585938zm0 0" fill="#e7e7e7" data-original="#E7E7E7"/><path d="m120.667969 289.875c.4375 1.484375.683593 3.058594.683593 4.6875 0 9.160156-7.425781 16.582031-16.585937 16.582031-1.972656 0-3.855469-.359375-5.609375-.992187 2.023438 6.875 8.371094 11.894531 15.902344 11.894531 9.15625 0 16.582031-7.421875 16.582031-16.582031 0-7.1875-4.578125-13.289063-10.972656-15.589844zm0 0" fill="#cecece" data-original="#CECECE" class="" style="fill:#CECECE"/><path d="m442.113281 305.464844c0 20.816406-16.875 37.691406-37.691406 37.691406s-37.691406-16.875-37.691406-37.691406 16.875-37.691406 37.691406-37.691406 37.691406 16.875 37.691406 37.691406zm0 0" fill="#9c9c9c" data-original="#9C9C9C" class=""/><path d="m417.175781 269.992188c4.335938 6.136718 6.894531 13.625 6.894531 21.710937 0 20.816406-16.878906 37.691406-37.691406 37.691406-4.480468 0-8.773437-.785156-12.757812-2.21875 6.824218 9.664063 18.070312 15.980469 30.800781 15.980469 20.816406 0 37.691406-16.875 37.691406-37.691406 0-16.339844-10.398437-30.246094-24.9375-35.472656zm0 0" fill="#838383" data-original="#838383" class=""/><path d="m421.007812 305.464844c0 9.160156-7.425781 16.582031-16.585937 16.582031s-16.582031-7.421875-16.582031-16.582031 7.421875-16.585938 16.582031-16.585938 16.585937 7.425782 16.585937 16.585938zm0 0" fill="#e7e7e7" data-original="#E7E7E7"/><path d="m410.03125 289.875c.4375 1.484375.683594 3.058594.683594 4.6875 0 9.160156-7.425782 16.582031-16.585938 16.582031-1.972656 0-3.855468-.359375-5.609375-.992187 2.027344 6.875 8.371094 11.894531 15.902344 11.894531 9.160156 0 16.585937-7.421875 16.585937-16.582031 0-7.1875-4.582031-13.289063-10.976562-15.589844zm0 0" fill="#cecece" data-original="#CECECE" class="" style="fill:#CECECE"/><path d="m311.1875 82.597656h62.816406v229.605469h-62.816406zm0 0" fill="#9c9c9c" data-original="#9C9C9C" class=""/><path d="m352.449219 82.597656h21.554687v229.605469h-21.554687zm0 0" fill="#838383" data-original="#838383" class=""/><path d="m372.8125 4.507812v30.367188c0 8.34375-6.761719 15.109375-15.109375 15.109375h-29.011719c-8.34375 0-15.109375-6.765625-15.109375-15.109375v-31.253906c0-2.953125-3.320312-4.636719-5.746093-2.949219-15.886719 11.089844-26.230469 29.570313-26.046876 50.453125.296876 33.589844 27.214844 60.257812 60.804688 60.253906 33.582031 0 60.808594-27.222656 60.808594-60.804687 0-20.085938-9.75-37.886719-24.765625-48.957031-2.414063-1.777344-5.824219-.109376-5.824219 2.890624zm0 0" fill="#9c9c9c" data-original="#9C9C9C" class=""/><path d="m342.59375 268.835938c-33.53125 0-60.359375 26.457031-60.800781 59.988281-.273438 20.710937 9.816406 39.074219 25.410156 50.253906 2.414063 1.730469 5.777344.042969 5.777344-2.929687v-33.027344c0-8.34375 6.761719-15.109375 15.109375-15.109375h29.011718c8.34375 0 15.109376 6.765625 15.109376 15.109375v33.03125c0 2.921875 3.308593 4.6875 5.683593 2.988281 15.4375-11.023437 25.507813-29.082031 25.507813-49.5 0-33.582031-27.226563-60.804687-60.808594-60.804687zm0 0" fill="#9c9c9c" data-original="#9C9C9C" class=""/><path d="m378.636719 1.617188c-2.414063-1.777344-5.824219-.109376-5.824219 2.890624v24.347657c2.585938 6.746093 4.007812 14.0625 4.007812 21.71875 0 29.035156-20.355468 53.300781-47.574218 59.34375 4.292968.945312 8.753906 1.460937 13.347656 1.460937 33.582031 0 60.808594-27.222656 60.808594-60.804687 0-20.085938-9.75-37.886719-24.765625-48.957031zm0 0" fill="#838383" data-original="#838383" class=""/><path d="m342.59375 268.835938c-4.597656 0-9.0625.511718-13.355469 1.457031 27.21875 6.039062 47.582031 30.308593 47.582031 59.347656 0 8.238281-1.640624 16.09375-4.609374 23.253906v23.261719c0 2.921875 3.308593 4.683594 5.683593 2.984375 15.4375-11.023437 25.507813-29.082031 25.507813-49.5 0-33.582031-27.226563-60.804687-60.808594-60.804687zm0 0" fill="#838383" data-original="#838383" class=""/></g> </svg>
