<?xml version="1.0" encoding="iso-8859-1"?>
<!-- Generator: Adobe Illustrator 19.0.0, SVG Export Plug-In . SVG Version: 6.00 Build 0)  -->
<svg version="1.1" id="Layer_1" xmlns="http://www.w3.org/2000/svg" xmlns:xlink="http://www.w3.org/1999/xlink" x="0px" y="0px"
	 viewBox="0 0 512 512" style="enable-background:new 0 0 512 512;" xml:space="preserve">
<g>
	<rect x="119.959" style="fill:#F7B64C;" width="67.2" height="30.933"/>
	<rect x="82.626" y="61.867" style="fill:#F7B64C;" width="346.667" height="410.667"/>
</g>
<g>
	<path style="fill:#FFD15C;" d="M430.359,512H82.626c-11.733,0-21.333-9.6-21.333-21.333c0-11.733,9.6-21.333,21.333-21.333h346.667
		c11.733,0,21.333,9.6,21.333,21.333C451.693,502.4,442.093,512,430.359,512z"/>
	<path style="fill:#FFD15C;" d="M430.359,67.2H82.626c-11.733,0-21.333-9.6-21.333-21.333s9.6-21.333,21.333-21.333h346.667
		c11.733,0,21.333,9.6,21.333,21.333S442.093,67.2,430.359,67.2z"/>
	<path style="fill:#FFD15C;" d="M430.359,152.533H82.626c-11.733,0-21.333-9.6-21.333-21.333s9.6-21.333,21.333-21.333h346.667
		c11.733,0,21.333,9.6,21.333,21.333S442.093,152.533,430.359,152.533z"/>
	<path style="fill:#FFD15C;" d="M430.359,427.733H82.626c-11.733,0-21.333-9.6-21.333-21.333s9.6-21.333,21.333-21.333h346.667
		c11.733,0,21.333,9.6,21.333,21.333C451.693,418.133,442.093,427.733,430.359,427.733z"/>
</g>
<path style="fill:#415A6B;" d="M308.759,295.467c0-28.8-52.267-106.667-52.267-106.667s-52.267,77.867-52.267,106.667
	c0,28.8,23.467,52.267,52.267,52.267S308.759,324.267,308.759,295.467z"/>
<path style="fill:#ADB3BA;" d="M256.493,332.8c-20.267,0-37.333-17.067-37.333-37.333c0-3.2,3.2-6.4,6.4-6.4c3.2,0,6.4,3.2,6.4,6.4
	c0,12.8,10.667,24.533,24.533,24.533c3.2,0,6.4,3.2,6.4,6.4S259.693,332.8,256.493,332.8z"/>
<g>
</g>
<g>
</g>
<g>
</g>
<g>
</g>
<g>
</g>
<g>
</g>
<g>
</g>
<g>
</g>
<g>
</g>
<g>
</g>
<g>
</g>
<g>
</g>
<g>
</g>
<g>
</g>
<g>
</g>
</svg>
