<svg id="Filled" height="512" viewBox="0 0 512 512" width="512" xmlns="http://www.w3.org/2000/svg"><path d="m24 328h464v32h-464z" fill="#dadcde"/><path d="m184 152v176h-144l13.35-146.9a32 32 0 0 1 31.87-29.1z" fill="#eb423f"/><path d="m216 104h256v192h-256z" fill="#dadcde"/><path d="m184 281.61v78.39h-96a80.028 80.028 0 0 1 96-78.39z" fill="#a82a27"/><path d="m24 296h32v64h-32z" fill="#a82a27"/><path d="m152 248h-80l6.248-49.985a16 16 0 0 1 15.876-14.015h57.876z" fill="#e9eef2"/><circle cx="169.33" cy="360" fill="#606669" r="48"/><circle cx="169.33" cy="360" fill="#e9eef2" r="16"/><path d="m200 104h288v32h-288z" fill="#b6b9ba"/><path d="m232 296h224v32h-224z" fill="#b6b9ba"/><path d="m57.43 168.13a31.808 31.808 0 0 0 -4.08 12.97l-.26 2.9h-21.09v24a8 8 0 0 1 -16 0v-32a8 8 0 0 1 8-8h32a7.459 7.459 0 0 1 1.43.13z" fill="#a82a27"/><circle cx="416" cy="360" fill="#606669" r="48"/><circle cx="416" cy="360" fill="#e9eef2" r="16"/><circle cx="320" cy="360" fill="#606669" r="48"/><circle cx="320" cy="360" fill="#e9eef2" r="16"/><g fill="#b6b9ba"><path d="m264 184h32v64h-32z"/><path d="m328 184h32v64h-32z"/><path d="m392 184h32v64h-32z"/></g><path d="m160 248v-64a8 8 0 0 0 -8-8h-57.875a24.038 24.038 0 0 0 -23.815 21.023l-6.248 49.985a8 8 0 0 0 7.938 8.992h80a8 8 0 0 0 8-8zm-16-8h-62.938l5.124-40.992a8.014 8.014 0 0 1 7.939-7.008h49.875z"/><path d="m169.33 336a24 24 0 1 0 24 24 24.027 24.027 0 0 0 -24-24zm0 32a8 8 0 1 1 8-8 8.009 8.009 0 0 1 -8 8z"/><path d="m488 96h-288a8 8 0 0 0 -8 8v32a8 8 0 0 0 8 8h8v152a8 8 0 0 0 8 8h8v16h-15.531a56.223 56.223 0 0 0 -16.469-11.188v-156.812a8 8 0 0 0 -8-8h-98.78a39.784 39.784 0 0 0 -36.695 24h-24.525a8 8 0 0 0 -8 8v32a8 8 0 0 0 16 0v-24h13.053l-9.453 104h-11.6a8 8 0 0 0 -8 8v64a8 8 0 0 0 8 8h89.911a55.993 55.993 0 0 0 110.839 0h39.831a55.981 55.981 0 0 0 103.419 20.81 55.981 55.981 0 0 0 103.419-20.81h16.581a8 8 0 0 0 8-8v-32a8 8 0 0 0 -8-8h-24v-16h8a8 8 0 0 0 8-8v-152h8a8 8 0 0 0 8-8v-32a8 8 0 0 0 -8-8zm-440 256h-16v-48h16zm32.367 0h-16.367v-16h19.327a87.478 87.478 0 0 0 -2.96 16zm-16.367-32v-24a8 8 0 0 0 -8-8h-4.33l9.647-106.175a23.887 23.887 0 0 1 23.903-21.825h90.78v112.379c-2.653-.24-5.323-.379-8-.379a88.1 88.1 0 0 0 -78.372 48zm49.911 32h-17.47a72.051 72.051 0 0 1 79.559-63.559v15.97a55.882 55.882 0 0 0 -62.089 47.589zm55.419 48a40 40 0 1 1 40-40 40.045 40.045 0 0 1 -40 40zm310.67-64v16h-8.581a55.52 55.52 0 0 0 -4.833-16zm-215.419 16h-39.831a55.552 55.552 0 0 0 -4.834-16h49.5a55.52 55.52 0 0 0 -4.835 16zm55.419 48a40 40 0 1 1 40-40 40.045 40.045 0 0 1 -40 40zm39.138-80a55.868 55.868 0 0 0 -78.276 0h-40.862v-16h208v10.083a55.847 55.847 0 0 0 -71.138 5.917zm56.862 80a40 40 0 1 1 40-40 40.045 40.045 0 0 1 -40 40zm48-112h-240v-144h240zm16-160h-272v-16h272z"/><path d="m416 336a24 24 0 1 0 24 24 24.027 24.027 0 0 0 -24-24zm0 32a8 8 0 1 1 8-8 8.009 8.009 0 0 1 -8 8z"/><path d="m320 336a24 24 0 1 0 24 24 24.027 24.027 0 0 0 -24-24zm0 32a8 8 0 1 1 8-8 8.009 8.009 0 0 1 -8 8z"/><path d="m264 256h32a8 8 0 0 0 8-8v-64a8 8 0 0 0 -8-8h-32a8 8 0 0 0 -8 8v64a8 8 0 0 0 8 8zm8-64h16v48h-16z"/><path d="m328 256h32a8 8 0 0 0 8-8v-64a8 8 0 0 0 -8-8h-32a8 8 0 0 0 -8 8v64a8 8 0 0 0 8 8zm8-64h16v48h-16z"/><path d="m392 256h32a8 8 0 0 0 8-8v-64a8 8 0 0 0 -8-8h-32a8 8 0 0 0 -8 8v64a8 8 0 0 0 8 8zm8-64h16v48h-16z"/></svg>